<svg viewBox="0 0 18 16" fill="currentColor" xmlns="http://www.w3.org/2000/svg">
    <path fill-rule="evenodd" clip-rule="evenodd" d="M3 9C2.44772 9 2 8.55228 2 8L2 1C2 0.447716 2.44771 -3.91405e-08 3 -8.74228e-08C3.55228 -1.35705e-07 4 0.447716 4 1L4 8C4 8.55228 3.55228 9 3 9Z"></path>
    <path fill-rule="evenodd" clip-rule="evenodd" d="M9 5C8.44772 5 8 4.55228 8 4L8 1C8 0.447715 8.44771 -9.13278e-08 9 -2.03986e-07C9.55228 -3.16645e-07 10 0.447715 10 1L10 4C10 4.55228 9.55228 5 9 5Z"></path>
    <path fill-rule="evenodd" clip-rule="evenodd" d="M3 16C2.44772 16 2 15.5523 2 15L2 12C2 11.4477 2.44771 11 3 11C3.55228 11 4 11.4477 4 12L4 15C4 15.5523 3.55228 16 3 16Z"></path>
    <path fill-rule="evenodd" clip-rule="evenodd" d="M15 16C14.4477 16 14 15.5523 14 15L14 13C14 12.4477 14.4477 12 15 12C15.5523 12 16 12.4477 16 13L16 15C16 15.5523 15.5523 16 15 16Z"></path>
    <path fill-rule="evenodd" clip-rule="evenodd" d="M9 16C8.44772 16 8 15.5523 8 15L8 8C8 7.44772 8.44771 7 9 7C9.55228 7 10 7.44772 10 8L10 15C10 15.5523 9.55228 16 9 16Z"></path>
    <path fill-rule="evenodd" clip-rule="evenodd" d="M6 4C6 3.44772 6.44772 3 7 3L11 3C11.5523 3 12 3.44772 12 4C12 4.55228 11.5523 5 11 5L7 5C6.44772 5 6 4.55228 6 4Z"></path>
    <path fill-rule="evenodd" clip-rule="evenodd" d="M0 12C0 11.4477 0.447715 11 1 11L5 11C5.55228 11 6 11.4477 6 12C6 12.5523 5.55228 13 5 13L1 13C0.447715 13 0 12.5523 0 12Z"></path>
    <path fill-rule="evenodd" clip-rule="evenodd" d="M12 13C12 12.4477 12.4477 12 13 12L17 12C17.5523 12 18 12.4477 18 13C18 13.5523 17.5523 14 17 14L13 14C12.4477 14 12 13.5523 12 13Z"></path>
    <path fill-rule="evenodd" clip-rule="evenodd" d="M15 10C14.4477 10 14 9.55228 14 9L14 1C14 0.447715 14.4477 -3.42479e-08 15 -7.64949e-08C15.5523 -1.18742e-07 16 0.447715 16 1L16 9C16 9.55228 15.5523 10 15 10Z"></path>
</svg>