<svg viewBox="0 0 20 15" fill="currentColor" xmlns="http://www.w3.org/2000/svg">
                            <path fill-rule="evenodd" clip-rule="evenodd" d="M0 1.25C0 0.559644 0.559644 0 1.25 0H18.75C19.4404 0 20 0.559644 20 1.25C20 1.94036 19.4404 2.5 18.75 2.5H1.25C0.559644 2.5 0 1.94036 0 1.25Z" ></path>
                            <path fill-rule="evenodd" clip-rule="evenodd" d="M0 7.5C0 6.80964 0.559644 6.25 1.25 6.25H18.75C19.4404 6.25 20 6.80964 20 7.5C20 8.19036 19.4404 8.75 18.75 8.75H1.25C0.559644 8.75 0 8.19036 0 7.5Z" ></path>
                            <path fill-rule="evenodd" clip-rule="evenodd" d="M0 13.75C0 13.0596 0.559644 12.5 1.25 12.5H18.75C19.4404 12.5 20 13.0596 20 13.75C20 14.4404 19.4404 15 18.75 15H1.25C0.559644 15 0 14.4404 0 13.75Z" ></path>
                        </svg>