<svg  viewBox="0 0 19 15" fill="currentColor" xmlns="http://www.w3.org/2000/svg">
                                <path d="M12.1481 8.24503C12.3121 8.12948 12.3903 7.9282 12.3568 7.73064L11.9505 5.36374L13.6688 3.69013C13.8105 3.55222 13.8627 3.33976 13.803 3.14966C13.7397 2.95956 13.5757 2.82165 13.3781 2.79183L11.0037 2.44518L9.94143 0.294465C9.85198 0.11555 9.66933 0 9.46805 0C9.26677 0 9.08413 0.11555 8.99467 0.294465L7.93236 2.44518L5.558 2.79183C5.36045 2.82165 5.19645 2.95956 5.13308 3.14966C5.06971 3.33976 5.1219 3.54849 5.26727 3.69013L6.9856 5.36374L6.57931 7.73064C6.54577 7.9282 6.62777 8.12575 6.78805 8.24503C6.95205 8.3643 7.16452 8.37921 7.34343 8.28603L9.46805 7.1678L11.5927 8.28603C11.6747 8.32703 11.9393 8.39412 12.1481 8.24503V8.24503ZM9.71779 6.10922C9.47178 6.02722 9.47178 6.02722 9.2295 6.10922L7.80563 6.85843L8.07773 5.27055C8.10755 5.09909 8.05164 4.92763 7.92491 4.80463L6.77314 3.67895L8.36847 3.44785C8.53993 3.42176 8.68903 3.31367 8.76357 3.16084L9.47551 1.71833L10.1874 3.16084C10.2657 3.31739 10.4111 3.42549 10.5825 3.44785L12.1779 3.67895L11.0261 4.80463C10.9031 4.9239 10.8472 5.09909 10.8733 5.27055L11.1454 6.85843L9.71779 6.10922Z" ></path>
                                <path d="M18.9133 9.80298C18.85 9.61288 18.6859 9.47497 18.4884 9.44515L16.114 9.0985L15.0517 6.94779C14.9623 6.76887 14.7796 6.65332 14.5783 6.65332C14.3771 6.65332 14.1944 6.76887 14.105 6.94779L13.0427 9.0985L10.6683 9.44515C10.4707 9.47497 10.3067 9.61288 10.2434 9.80298C10.18 9.99308 10.2322 10.2018 10.3776 10.3435L12.0959 12.0171L11.6896 14.384C11.6561 14.5815 11.7381 14.7791 11.8983 14.8983C12.0623 15.0176 12.2748 15.0325 12.4537 14.9393L14.5783 13.8211L16.703 14.9393C16.7812 14.9803 17.0459 15.0474 17.2583 14.8983C17.4224 14.7828 17.5006 14.5815 17.4671 14.384L17.0608 12.0171L18.7791 10.3435C18.9245 10.2018 18.9767 9.99308 18.9133 9.80298V9.80298ZM16.1289 11.4542C16.0059 11.5735 15.95 11.7487 15.9761 11.9201L16.2482 13.508L14.8244 12.7588C14.5783 12.6768 14.5783 12.6768 14.3361 12.7588L12.9122 13.508L13.1843 11.9201C13.2141 11.7487 13.1582 11.5772 13.0315 11.4542L11.8797 10.3323L13.475 10.1012C13.6465 10.0751 13.7956 9.96699 13.8701 9.81416L14.5821 8.37165L15.294 9.81416C15.3723 9.97071 15.5176 10.0788 15.6891 10.1012L17.2844 10.3323L16.1289 11.4542Z" ></path>
                                <path d="M8.27157 9.44515L5.89721 9.0985L4.8349 6.94779C4.74544 6.76887 4.5628 6.65332 4.36152 6.65332C4.16024 6.65332 3.97759 6.76887 3.88814 6.94779L2.82583 9.0985L0.451467 9.44515C0.253914 9.47497 0.0899081 9.61288 0.0265422 9.80298C-0.0368237 9.99308 0.01536 10.2018 0.160729 10.3435L1.87906 12.0171L1.47278 14.384C1.43923 14.5815 1.52123 14.7791 1.68151 14.8983C1.84552 15.0176 2.05798 15.0325 2.23689 14.9393L4.36152 13.8211L6.48614 14.9393C6.56441 14.9803 6.82906 15.0474 7.04152 14.8983C7.20553 14.7828 7.2838 14.5815 7.25026 14.384L6.84397 12.0171L8.56231 10.3435C8.70395 10.2055 8.75613 9.99308 8.69649 9.80298C8.63313 9.61288 8.46912 9.47124 8.27157 9.44515V9.44515ZM5.91212 11.4542C5.78911 11.5735 5.7332 11.7487 5.75929 11.9201L6.0314 13.508L4.60753 12.7588C4.36152 12.6768 4.36152 12.6768 4.11924 12.7588L2.69537 13.508L2.96747 11.9201C2.99729 11.7487 2.94137 11.5772 2.81464 11.4542L1.65915 10.3323L3.25448 10.1012C3.42594 10.0751 3.57503 9.96699 3.64958 9.81416L4.36152 8.37165L5.07345 9.81416C5.15173 9.97071 5.2971 10.0788 5.46856 10.1012L7.06389 10.3323L5.91212 11.4542Z" ></path>
                                </svg>