<svg viewBox="0 0 27 21" fill="currentColor" xmlns="http://www.w3.org/2000/svg">
                    <path fill-rule="evenodd" clip-rule="evenodd" d="M0 18.5233C0 17.6563 0.737949 16.9535 1.64826 16.9535H11.5378C12.4481 16.9535 13.186 17.6563 13.186 18.5233C13.186 19.3902 12.4481 20.093 11.5378 20.093H1.64826C0.737949 20.093 0 19.3902 0 18.5233Z" ></path>
                    <path fill-rule="evenodd" clip-rule="evenodd" d="M0 10.0465C0 9.00615 0.749663 8.16278 1.67442 8.16278H18.4186C19.3434 8.16278 20.093 9.00615 20.093 10.0465C20.093 11.0869 19.3434 11.9302 18.4186 11.9302H1.67442C0.749663 11.9302 0 11.0869 0 10.0465Z" ></path>
                    <path fill-rule="evenodd" clip-rule="evenodd" d="M0 1.56977C0 0.702809 0.755519 0 1.6875 0H25.3125C26.2445 0 27 0.702809 27 1.56977C27 2.43673 26.2445 3.13953 25.3125 3.13953H1.6875C0.755519 3.13953 0 2.43673 0 1.56977Z" ></path>
                </svg>