<svg viewBox="0 0 20 15" fill="currentColor" xmlns="http://www.w3.org/2000/svg">
                        <path fill-rule="evenodd" clip-rule="evenodd" d="M4.93417 2.43991e-06C4.95604 3.63201e-06 4.97799 4.8241e-06 5 4.8241e-06L15.0658 2.43991e-06C15.9523 -4.73896e-05 16.7161 -9.01893e-05 17.3278 0.0821453C17.9833 0.170277 18.6117 0.369022 19.1213 0.878684C19.631 1.38835 19.8297 2.0167 19.9179 2.67221C20.0001 3.28388 20.0001 4.0477 20 4.9342V10.0658C20.0001 10.9523 20.0001 11.7161 19.9179 12.3278C19.8297 12.9833 19.631 13.6117 19.1213 14.1213C18.6117 14.631 17.9833 14.8297 17.3278 14.9179C16.7161 15.0001 15.9523 15.0001 15.0658 15H4.93417C4.04769 15.0001 3.28387 15.0001 2.67221 14.9179C2.0167 14.8297 1.38835 14.631 0.878684 14.1213C0.369022 13.6117 0.170277 12.9833 0.0821453 12.3278C-9.01893e-05 11.7161 -4.73896e-05 10.9523 2.43991e-06 10.0658L4.8241e-06 5C4.8241e-06 4.97799 3.63201e-06 4.95604 2.43991e-06 4.93417C-4.73896e-05 4.04769 -9.01893e-05 3.28387 0.0821453 2.67221C0.170277 2.0167 0.369022 1.38835 0.878684 0.878684C1.38835 0.369022 2.0167 0.170277 2.67221 0.0821453C3.28387 -9.01893e-05 4.04769 -4.73896e-05 4.93417 2.43991e-06ZM2.93871 2.06431C2.50497 2.12263 2.36902 2.21677 2.2929 2.2929C2.21677 2.36902 2.12263 2.50497 2.06431 2.93871C2.00213 3.40122 2 4.02893 2 5V10C2 10.9711 2.00213 11.5988 2.06431 12.0613C2.12263 12.495 2.21677 12.631 2.2929 12.7071C2.36902 12.7832 2.50497 12.8774 2.93871 12.9357C3.40122 12.9979 4.02893 13 5 13H15C15.9711 13 16.5988 12.9979 17.0613 12.9357C17.495 12.8774 17.631 12.7832 17.7071 12.7071C17.7832 12.631 17.8774 12.495 17.9357 12.0613C17.9979 11.5988 18 10.9711 18 10V5C18 4.02893 17.9979 3.40122 17.9357 2.93871C17.8774 2.50497 17.7832 2.36902 17.7071 2.2929C17.631 2.21677 17.495 2.12263 17.0613 2.06431C16.5988 2.00213 15.9711 2 15 2H5C4.02893 2 3.40122 2.00213 2.93871 2.06431Z"  ></path>
                        <path fill-rule="evenodd" clip-rule="evenodd " d="M4 10C4 9.44772 4.44772 9 5 9H5.01C5.56228 9 6.01 9.44772 6.01 10C6.01 10.5523 5.56228 11 5.01 11H5C4.44772 11 4 10.5523 4 10Z" ></path>
                        <path fill-rule="evenodd" clip-rule="evenodd" d="M1 6C1 5.44772 1.44772 5 2 5H19C19.5523 5 20 5.44772 20 6C20 6.55228 19.5523 7 19 7H2C1.44772 7 1 6.55228 1 6Z" ></path>
                    </svg>