<svg  viewBox="0 0 24 24" fill="currentColor" xmlns="http://www.w3.org/2000/svg">
                                            <path fill-rule="evenodd" clip-rule="evenodd" d="M12 3.66667C7.39763 3.66667 3.66667 7.39763 3.66667 12C3.66667 16.6024 7.39763 20.3333 12 20.3333C16.6024 20.3333 20.3333 16.6024 20.3333 12C20.3333 7.39763 16.6024 3.66667 12 3.66667ZM2 12C2 6.47715 6.47715 2 12 2C17.5228 2 22 6.47715 22 12C22 17.5228 17.5228 22 12 22C6.47715 22 2 17.5228 2 12Z"  ></path>
                                            <path fill-rule="evenodd" clip-rule="evenodd" d="M16.7559 7.2441C16.9791 7.46729 17.0571 7.79743 16.9573 8.09688L14.8739 14.3469C14.791 14.5957 14.5957 14.791 14.3469 14.8739L8.09688 16.9573C7.79743 17.0571 7.46729 16.9791 7.2441 16.7559C7.02091 16.5328 6.94297 16.2026 7.04279 15.9032L9.12612 9.65317C9.20907 9.40433 9.40433 9.20907 9.65317 9.12612L15.9032 7.04279C16.2026 6.94297 16.5328 7.02091 16.7559 7.2441ZM10.5755 10.5755L9.15097 14.8491L13.4245 13.4245L14.8491 9.15097L10.5755 10.5755Z" ></path>
                                        </svg>