<svg 
        viewBox="0 0 13 13"
        fill="currentColor"
      >
        <path
          fillRule="evenodd"
          clipRule="evenodd"
          d="M0.455612 0.455612C1.06309 -0.151871 2.04802 -0.151871 2.6555 0.455612L11.9888 9.78895C12.5963 10.3964 12.5963 11.3814 11.9888 11.9888C11.3814 12.5963 10.3964 12.5963 9.78895 11.9888L0.455612 2.6555C-0.151871 2.04802 -0.151871 1.06309 0.455612 0.455612Z"
          
        />
        <path
          fillRule="evenodd"
          clipRule="evenodd"
          d="M11.9897 0.455612C11.3822 -0.151871 10.3973 -0.151871 9.78981 0.455612L0.45648 9.78895C-0.151003 10.3964 -0.151003 11.3814 0.45648 11.9888C1.06396 12.5963 2.04889 12.5963 2.65637 11.9888L11.9897 2.6555C12.5972 2.04802 12.5972 1.06309 11.9897 0.455612Z"
          
        />
      </svg>