<svg viewBox="0 0 18 14" fill="currentColor" xmlns="http://www.w3.org/2000/svg">
                                            <path fill-rule="evenodd" clip-rule="evenodd" d="M4.93417 2.43991e-06C4.95604 3.63201e-06 4.97799 4.8241e-06 5 4.8241e-06L13.0658 2.43991e-06C13.9523 -4.73896e-05 14.7161 -9.01893e-05 15.3278 0.0821453C15.9833 0.170277 16.6117 0.369022 17.1213 0.878684C17.631 1.38835 17.8297 2.0167 17.9179 2.67221C18.0001 3.28388 18.0001 4.0477 18 4.9342V9.06581C18.0001 9.95231 18.0001 10.7161 17.9179 11.3278C17.8297 11.9833 17.631 12.6117 17.1213 13.1213C16.6117 13.631 15.9833 13.8297 15.3278 13.9179C14.7161 14.0001 13.9523 14.0001 13.0658 14H4.93417C4.04769 14.0001 3.28387 14.0001 2.67221 13.9179C2.0167 13.8297 1.38835 13.631 0.878684 13.1213C0.369022 12.6117 0.170277 11.9833 0.0821453 11.3278C-9.01893e-05 10.7161 -4.73896e-05 9.95232 2.43991e-06 9.06583L4.8241e-06 5C4.8241e-06 4.97799 3.63201e-06 4.95604 2.43991e-06 4.93417C-4.73896e-05 4.04769 -9.01893e-05 3.28387 0.0821453 2.67221C0.170277 2.0167 0.369022 1.38835 0.878684 0.878684C1.38835 0.369022 2.0167 0.170277 2.67221 0.0821453C3.28387 -9.01893e-05 4.04769 -4.73896e-05 4.93417 2.43991e-06ZM2.93871 2.06431C2.50497 2.12263 2.36902 2.21677 2.2929 2.2929C2.21677 2.36902 2.12263 2.50497 2.06431 2.93871C2.00213 3.40122 2 4.02893 2 5V9C2 9.97108 2.00213 10.5988 2.06431 11.0613C2.12263 11.495 2.21677 11.631 2.2929 11.7071C2.36902 11.7832 2.50497 11.8774 2.93871 11.9357C3.40122 11.9979 4.02893 12 5 12H13C13.9711 12 14.5988 11.9979 15.0613 11.9357C15.495 11.8774 15.631 11.7832 15.7071 11.7071C15.7832 11.631 15.8774 11.495 15.9357 11.0613C15.9979 10.5988 16 9.97108 16 9V5C16 4.02893 15.9979 3.40122 15.9357 2.93871C15.8774 2.50497 15.7832 2.36902 15.7071 2.2929C15.631 2.21677 15.495 2.12263 15.0613 2.06431C14.5988 2.00213 13.9711 2 13 2H5C4.02893 2 3.40122 2.00213 2.93871 2.06431Z"  ></path>
                                            <path fill-rule="evenodd" clip-rule="evenodd" d="M7.65831 8.44711L0.552734 4.89432L1.44716 3.10547L8.55273 6.65826C8.83426 6.79902 9.16563 6.79902 9.44716 6.65826L16.5527 3.10547L17.4472 4.89432L10.3416 8.44711C9.49701 8.8694 8.50289 8.8694 7.65831 8.44711Z"  ></path>
                                        </svg>