<svg
                                                xmlns="http://www.w3.org/2000/svg"
                                               
                                                viewBox="0 0 31 36"
                                                fill="currentColor"
                                            >
                                                <path
                                                    fillRule="evenodd"
                                                    clipRule="evenodd"
                                                    d="M4.38222 6.84833C3.93638 7.30009 3.87492 7.60249 3.87492 7.74983C3.87492 7.89717 3.93638 8.19958 4.38222 8.65133C4.83629 9.11141 5.58938 9.61461 6.67294 10.079C8.83316 11.0048 11.9525 11.6247 15.4997 11.6247C19.0468 11.6247 22.1662 11.0048 24.3264 10.079C25.4099 9.61461 26.163 9.11141 26.6171 8.65133C27.0629 8.19958 27.1244 7.89717 27.1244 7.74983C27.1244 7.60249 27.0629 7.30009 26.6171 6.84833C26.163 6.38825 25.4099 5.88505 24.3264 5.42067C22.1662 4.49486 19.0468 3.87492 15.4997 3.87492C11.9525 3.87492 8.83316 4.49486 6.67294 5.42067C5.58938 5.88505 4.83629 6.38825 4.38222 6.84833ZM5.14653 1.85906C7.89486 0.681202 11.5566 0 15.4997 0C19.4427 0 23.1045 0.681202 25.8528 1.85906C27.2235 2.44651 28.4566 3.19577 29.3751 4.12645C30.3018 5.06547 30.9993 6.29213 30.9993 7.74983C30.9993 9.20753 30.3018 10.4342 29.3751 11.3732C28.4566 12.3039 27.2235 13.0532 25.8528 13.6406C23.1045 14.8185 19.4427 15.4997 15.4997 15.4997C11.5566 15.4997 7.89486 14.8185 5.14653 13.6406C3.77582 13.0532 2.54277 12.3039 1.62426 11.3732C0.697534 10.4342 0 9.20753 0 7.74983C0 6.29213 0.697534 5.06547 1.62426 4.12645C2.54277 3.19577 3.77582 2.44651 5.14653 1.85906Z"
                                                  
                                                />
                                                <path
                                                    fillRule="evenodd"
                                                    clipRule="evenodd"
                                                    d="M1.59121 5.84409C2.64398 5.65267 3.65259 6.35094 3.844 7.40371L7.60672 28.0987C12.0728 32.1731 18.9272 32.1731 23.3933 28.0987L27.156 7.40371C27.3474 6.35094 28.356 5.65267 29.4088 5.84409C30.4616 6.0355 31.1598 7.04411 30.9684 8.09688L27.1008 29.3686C27.0256 29.7826 26.8258 30.1638 26.5283 30.4613C20.4375 36.5521 10.5625 36.5521 4.47173 30.4613C4.17418 30.1638 3.97444 29.7826 3.89916 29.3686L0.0315873 8.09688C-0.159825 7.04411 0.538442 6.0355 1.59121 5.84409Z"
                                                  
                                                />
                                            </svg>