<svg viewBox="0 0 20 14" fill="currentColor">
                                        <path fill-rule="evenodd" clip-rule="evenodd" d="M9.77051 9C10.8751 9 11.7705 8.10457 11.7705 7C11.7705 5.89543 10.8751 5 9.77051 5C8.66594 5 7.77051 5.89543 7.77051 7C7.77051 8.10457 8.66594 9 9.77051 9ZM9.77051 11C11.9796 11 13.7705 9.20914 13.7705 7C13.7705 4.79086 11.9796 3 9.77051 3C7.56137 3 5.77051 4.79086 5.77051 7C5.77051 9.20914 7.56137 11 9.77051 11Z" />
                                        <path fill-rule="evenodd" clip-rule="evenodd" d="M5.42941 3.63233C4.11029 4.58138 3.03435 5.74418 2.35413 6.57005C2.25436 6.69118 2.17984 6.78179 2.11811 6.86149C2.06925 6.92459 2.03813 6.96852 2.01782 7C2.03813 7.03148 2.06925 7.07541 2.11811 7.13851C2.17984 7.21821 2.25436 7.30882 2.35413 7.42995C3.03435 8.25582 4.11029 9.41862 5.42941 10.3677C6.75643 11.3224 8.24447 12 9.77027 12C11.2961 12 12.7841 11.3224 14.1111 10.3677C15.4303 9.41862 16.5062 8.25582 17.1864 7.42995C17.2862 7.30882 17.3607 7.21821 17.4224 7.13851C17.4713 7.07541 17.5024 7.03147 17.5227 7C17.5024 6.96852 17.4713 6.92458 17.4224 6.86149C17.3607 6.78179 17.2862 6.69118 17.1864 6.57005C16.5062 5.74418 15.4303 4.58138 14.1111 3.63233C12.7841 2.6776 11.2961 2 9.77027 2C8.24447 2 6.75643 2.6776 5.42941 3.63233ZM4.26138 2.00884C5.76442 0.927471 7.66034 0 9.77027 0C11.8802 0 13.7761 0.927472 15.2792 2.00885C16.7901 3.0959 17.9903 4.40025 18.7302 5.29853C18.7538 5.32717 18.7784 5.35662 18.8037 5.38694C19.1171 5.76236 19.5406 6.26957 19.5406 7C19.5406 7.73043 19.1171 8.23764 18.8037 8.61306C18.7784 8.64338 18.7538 8.67283 18.7302 8.70148C17.9903 9.59976 16.7901 10.9041 15.2792 11.9912C13.7761 13.0725 11.8802 14 9.77027 14C7.66034 14 5.76442 13.0725 4.26138 11.9912C2.75044 10.9041 1.55022 9.59975 0.810357 8.70147C0.786765 8.67283 0.762175 8.64338 0.736868 8.61306C0.423444 8.23764 -5.96046e-08 7.73043 0 7C0 6.26957 0.423445 5.76236 0.736869 5.38694C0.762176 5.35662 0.786766 5.32717 0.810358 5.29852C1.55022 4.40024 2.75044 3.0959 4.26138 2.00884Z"/>
                                    </svg>