<svg viewBox="0 0 22 19" fill="currentColor">
                                        <path fill-rule="evenodd" clip-rule="evenodd" d="M19.9803 18.3977L3.07666 1.49408L4.57074 0L21.4743 16.9036L19.9803 18.3977Z"  ></path>
                                        <path fill-rule="evenodd" clip-rule="evenodd" d="M15.9929 17.2707L14.4406 15.7184C13.4135 16.2565 12.3254 16.5941 11.2185 16.5941C9.60656 16.5941 8.03448 15.8782 6.63251 14.8696C5.2389 13.8669 4.1022 12.6384 3.38356 11.7659C3.27816 11.638 3.19943 11.5422 3.13422 11.458C3.08259 11.3914 3.04971 11.345 3.02826 11.3117C3.04971 11.2785 3.08259 11.232 3.13422 11.1654C3.19943 11.0812 3.27816 10.9854 3.38356 10.8575C4.08655 10.004 5.18959 8.80983 6.54184 7.81967L5.03242 6.31025C3.60813 7.39869 2.47352 8.63887 1.75261 9.51414C1.72769 9.54439 1.70172 9.5755 1.67499 9.60752L1.67497 9.60754C1.34384 10.0042 0.896484 10.54 0.896484 11.3117C0.896484 12.0834 1.34384 12.6192 1.67497 13.0159L1.6752 13.0161C1.70185 13.0481 1.72775 13.0791 1.75261 13.1093C2.53426 14.0583 3.80225 15.4363 5.39852 16.5847C6.98645 17.7272 8.98944 18.707 11.2185 18.707C12.9829 18.707 14.6055 18.0932 15.9929 17.2707ZM7.84501 4.6406C8.88436 4.20027 10.0187 3.91638 11.2185 3.91638C13.4476 3.91638 15.4506 4.89623 17.0385 6.03868C18.6348 7.18712 19.9028 8.56513 20.6845 9.51414C20.7094 9.54438 20.7353 9.57548 20.7621 9.60749L20.7621 9.60754C21.0932 10.0042 21.5406 10.54 21.5406 11.3117C21.5406 12.0834 21.0932 12.6192 20.7621 13.0159C20.7354 13.0479 20.7094 13.079 20.6845 13.1093C20.1703 13.7335 19.4458 14.5433 18.5558 15.3513L17.0597 13.8553C17.8837 13.1162 18.5651 12.3589 19.0535 11.7659C19.1589 11.638 19.2376 11.5422 19.3028 11.458C19.3545 11.3914 19.3874 11.345 19.4088 11.3117C19.3873 11.2784 19.3545 11.232 19.3028 11.1654C19.2376 11.0812 19.1589 10.9854 19.0535 10.8575C18.3349 9.98496 17.1982 8.7565 15.8045 7.75385C14.4026 6.7452 12.8305 6.02933 11.2185 6.02933C10.6364 6.02933 10.0595 6.12269 9.49389 6.28948L7.84501 4.6406Z"  ></path>
                                        <path fill-rule="evenodd" clip-rule="evenodd" d="M15.3602 12.1556C15.4155 11.8829 15.4445 11.6007 15.4445 11.3117C15.4445 8.97781 13.5525 7.08582 11.2186 7.08582C10.9296 7.08582 10.6473 7.11483 10.3746 7.17009L15.3602 12.1556ZM7.69709 8.97478C7.25201 9.64413 6.99268 10.4476 6.99268 11.3117C6.99268 13.6456 8.88468 15.5376 11.2186 15.5376C12.0827 15.5376 12.8862 15.2783 13.5555 14.8332L11.9984 13.2761C11.7571 13.372 11.494 13.4247 11.2186 13.4247C10.0516 13.4247 9.10562 12.4787 9.10562 11.3117C9.10562 11.0363 9.15833 10.7732 9.25419 10.5319L7.69709 8.97478Z"  ></path>
                                    </svg>