<svg  viewBox="0 0 16 16" fill="currentColor"  >	 
	<path d="M11 0L5 0C4.33 0 3.69 0.12 3.08 0.38C2.47 0.63 1.93 0.99 1.46 1.46C0.99 1.93 0.63 2.47 0.38 3.08C0.12 3.69 0 4.33 0 5L0 11C0 11.66 0.12 12.3 0.38 12.91C0.63 13.52 0.99 14.06 1.46 14.53C1.93 15 2.47 15.36 3.08 15.61C3.69 15.87 4.33 16 5 16L11 16C11.66 16 12.3 15.87 12.91 15.61C13.52 15.36 14.06 15 14.53 14.53C15 14.06 15.36 13.52 15.61 12.91C15.87 12.3 16 11.66 16 11L16 5C16 4.33 15.87 3.69 15.61 3.08C15.36 2.47 15 1.93 14.53 1.46C14.06 0.99 13.52 0.63 12.91 0.38C12.3 0.12 11.66 0 11 0ZM14.5 11C14.5 12.93 12.93 14.5 11 14.5L5 14.5C3.06 14.5 1.5 12.93 1.5 11L1.5 5C1.5 3.06 3.06 1.5 5 1.5L11 1.5C12.93 1.5 14.5 3.06 14.5 5L14.5 11Z"  fill-rule="nonzero"/>
	<path d="M8 4C6.89 4 5.95 4.39 5.17 5.17C4.39 5.95 4 6.89 4 8C4 9.1 4.39 10.04 5.17 10.82C5.95 11.6 6.89 12 8 12C9.1 12 10.04 11.6 10.82 10.82C11.6 10.04 12 9.1 12 8C12 6.89 11.6 5.95 10.82 5.17C10.04 4.39 9.1 4 8 4ZM8 10.5C7.31 10.49 6.72 10.25 6.23 9.76C5.74 9.27 5.5 8.69 5.5 8C5.5 6.62 6.62 5.5 8 5.5C9.37 5.5 10.5 6.62 10.5 8C10.5 9.37 9.37 10.5 8 10.5Z"  fill-rule="nonzero"/>
	<circle id="circle" cx="12.300293" cy="3.699951" r="0.533000" />
</svg>
