<svg viewBox="0 0 16 18" fill="currentColor" xmlns="http://www.w3.org/2000/svg">
                                            <path fill-rule="evenodd" clip-rule="evenodd" d="M8 2C4.68629 2 2 4.68629 2 8C2 10.1458 3.09211 11.9159 4.45503 13.2906C5.77773 14.6248 7.27659 15.5032 8 15.8837C8.72341 15.5032 10.2223 14.6248 11.545 13.2906C12.9079 11.9159 14 10.1458 14 8C14 4.68629 11.3137 2 8 2ZM0 8C0 3.58172 3.58172 0 8 0C12.4183 0 16 3.58172 16 8C16 10.8706 14.5326 13.1178 12.9653 14.6987C11.397 16.2805 9.64481 17.2838 8.85847 17.6917C8.31691 17.9726 7.68309 17.9726 7.14153 17.6917C6.35519 17.2838 4.60299 16.2805 3.03474 14.6987C1.46741 13.1178 0 10.8706 0 8ZM8 6C6.89543 6 6 6.89543 6 8C6 9.10457 6.89543 10 8 10C9.10457 10 10 9.10457 10 8C10 6.89543 9.10457 6 8 6ZM4 8C4 5.79086 5.79086 4 8 4C10.2091 4 12 5.79086 12 8C12 10.2091 10.2091 12 8 12C5.79086 12 4 10.2091 4 8Z"  ></path>
                                        </svg>