<svg viewBox="0 0 18 20" fill="currentColor">
                                        <path fill-rule="evenodd" clip-rule="evenodd" d="M4 5C4 2.23858 6.23858 0 9 0C11.7614 0 14 2.23858 14 5V6C14 6.55228 13.5523 7 13 7C12.4477 7 12 6.55228 12 6V5C12 3.34315 10.6569 2 9 2C7.34315 2 6 3.34315 6 5V6C6 6.55228 5.55228 7 5 7C4.44772 7 4 6.55228 4 6V5Z" ></path>
                                        <path fill-rule="evenodd" clip-rule="evenodd" d="M0.87868 5.87868C0 6.75736 0 8.17157 0 11V12C0 15.7712 0 17.6569 1.17157 18.8284C2.34315 20 4.22876 20 8 20H10C13.7712 20 15.6569 20 16.8284 18.8284C18 17.6569 18 15.7712 18 12V11C18 8.17157 18 6.75736 17.1213 5.87868C16.2426 5 14.8284 5 12 5H6C3.17157 5 1.75736 5 0.87868 5.87868ZM9 13C9.55228 13 10 12.5523 10 12C10 11.4477 9.55228 11 9 11C8.44772 11 8 11.4477 8 12C8 12.5523 8.44772 13 9 13ZM12 12C12 13.3062 11.1652 14.4175 10 14.8293V17H8V14.8293C6.83481 14.4175 6 13.3062 6 12C6 10.3431 7.34315 9 9 9C10.6569 9 12 10.3431 12 12Z"  ></path>
                                    </svg>