<svg  viewBox="0 0 14 20" fill="none" xmlns="http://www.w3.org/2000/svg">
                                                <mask id="path-1-outside-1_513_1062" maskUnits="userSpaceOnUse" x="2" y="0" width="10" height="6" fill="black">
                                                    <rect fill="white" x="2" width="10" height="6"></rect>
                                                    <path d="M8.33333 3H5.66667C5.51167 3 5.43417 3 5.37059 2.98296C5.19804 2.93673 5.06327 2.80196 5.01704 2.62941C5 2.56583 5 2.48833 5 2.33333C5 2.25584 5 2.21709 5.00852 2.1853C5.03164 2.09902 5.09902 2.03164 5.1853 2.00852C5.21709 2 5.25584 2 5.33333 2H8.66667C8.74416 2 8.78291 2 8.8147 2.00852C8.90098 2.03164 8.96836 2.09902 8.99148 2.1853C9 2.21709 9 2.25584 9 2.33333C9 2.48833 9 2.56583 8.98296 2.62941C8.93673 2.80196 8.80196 2.93673 8.62941 2.98296C8.56583 3 8.48833 3 8.33333 3Z"></path>
                                                </mask>
                                                <path d="M5.01704 2.62941L3.08519 3.14705L3.08519 3.14705L5.01704 2.62941ZM5.37059 2.98296L4.85295 4.91481H4.85295L5.37059 2.98296ZM8.98296 2.62941L7.05111 2.11177L7.05111 2.11177L8.98296 2.62941ZM8.62941 2.98296L9.14705 4.91481L9.14705 4.91481L8.62941 2.98296ZM8.99148 2.1853L10.9233 1.66766L10.9233 1.66766L8.99148 2.1853ZM8.8147 2.00852L8.29706 3.94037L8.29707 3.94037L8.8147 2.00852ZM5.00852 2.1853L6.94037 2.70293L5.00852 2.1853ZM5.1853 2.00852L5.70293 3.94037L5.1853 2.00852ZM5.66667 5H8.33333V1H5.66667V5ZM8.66667 0H5.33333V4H8.66667V0ZM3 2.33333C3 2.35957 2.98282 2.76502 3.08519 3.14705L6.94889 2.11177C6.99348 2.2782 6.99913 2.40436 7.00005 2.42453C7.00059 2.43631 7.00036 2.43764 7.00019 2.41833C7.00002 2.39894 7 2.37464 7 2.33333H3ZM5.66667 1C5.62536 1 5.60106 0.999984 5.58167 0.999812C5.56236 0.999641 5.56369 0.99941 5.57547 0.999947C5.59564 1.00087 5.7218 1.00652 5.88823 1.05111L4.85295 4.91481C5.23498 5.01718 5.64043 5 5.66667 5V1ZM3.08519 3.14705C3.31635 4.00978 3.99022 4.68365 4.85295 4.91481L5.88823 1.05111C6.40587 1.18981 6.81019 1.59413 6.94889 2.11177L3.08519 3.14705ZM7 2.33333C7 2.37464 6.99998 2.39894 6.99981 2.41833C6.99964 2.43764 6.99941 2.43631 6.99995 2.42453C7.00087 2.40436 7.00652 2.2782 7.05111 2.11177L10.9148 3.14705C11.0172 2.76502 11 2.35957 11 2.33333H7ZM8.33333 5C8.35957 5 8.76502 5.01718 9.14705 4.91481L8.11177 1.05111C8.2782 1.00652 8.40436 1.00087 8.42453 0.999947C8.43631 0.99941 8.43764 0.999641 8.41833 0.999812C8.39894 0.999984 8.37464 1 8.33333 1V5ZM7.05111 2.11177C7.18981 1.59413 7.59413 1.18981 8.11177 1.05111L9.14705 4.91481C10.0098 4.68365 10.6836 4.00978 10.9148 3.14705L7.05111 2.11177ZM11 2.33333C11 2.31271 11.0005 2.23053 10.9969 2.15106C10.9927 2.06084 10.9807 1.88178 10.9233 1.66766L7.05963 2.70293C7.01077 2.5206 7.003 2.37681 7.00101 2.33329C6.99994 2.30984 6.99991 2.29541 6.99995 2.29969C6.99998 2.30405 7 2.3114 7 2.33333H11ZM8.66667 4C8.6886 4 8.69595 4.00002 8.70031 4.00005C8.70459 4.00009 8.69016 4.00006 8.66671 3.99899C8.62318 3.997 8.47939 3.98923 8.29706 3.94037L9.33235 0.0766677C9.11822 0.0192933 8.93916 0.00725603 8.84894 0.0031414C8.76947 -0.000483036 8.68729 0 8.66667 0V4ZM10.9233 1.66766C10.7153 0.8912 10.1088 0.284717 9.33234 0.0766666L8.29707 3.94037C7.69316 3.77855 7.22145 3.30684 7.05963 2.70293L10.9233 1.66766ZM7 2.33333C7 2.3114 7.00002 2.30405 7.00005 2.29969C7.00009 2.29541 7.00006 2.30984 6.99899 2.33329C6.997 2.37682 6.98923 2.5206 6.94037 2.70293L3.07667 1.66766C3.01929 1.88178 3.00726 2.06084 3.00314 2.15106C2.99952 2.23053 3 2.31271 3 2.33333H7ZM5.33333 0C5.31271 0 5.23053 -0.000483036 5.15106 0.0031414C5.06084 0.00725603 4.88178 0.0192934 4.66766 0.076667L5.70293 3.94037C5.5206 3.98923 5.37682 3.997 5.33329 3.99899C5.30984 4.00006 5.29541 4.00009 5.29969 4.00005C5.30405 4.00002 5.3114 4 5.33333 4V0ZM6.94037 2.70293C6.77855 3.30684 6.30684 3.77855 5.70293 3.94037L4.66766 0.076667C3.8912 0.284718 3.28472 0.8912 3.07667 1.66766L6.94037 2.70293Z" fill="currentColor" mask="url(#path-1-outside-1_513_1062)"></path>
                                                <rect x="1" y="1" width="12" height="18" rx="2" stroke="currentColor" stroke-width="2"></rect>
                                                <circle cx="7" cy="16" r="1" fill="currentColor"></circle>
                                            </svg>
                                            