<svg  viewBox="0 0 13 13" fill="currentColor" xmlns="http://www.w3.org/2000/svg">
                                    <path d="M1.37104 0.70694L1.84948 0.228499C2.15415 -0.0761661 2.64811 -0.0761666 2.95277 0.228499L4.97006 2.24579C5.27472 2.55045 5.27472 3.04441 4.97006 3.34908L3.57172 4.74742C3.33855 4.98059 3.28074 5.3368 3.42821 5.63175C4.28072 7.33676 5.66324 8.71928 7.36826 9.57179C7.6632 9.71926 8.01941 9.66145 8.25259 9.42828L9.65092 8.02994C9.95559 7.72528 10.4495 7.72528 10.7542 8.02994L12.7715 10.0472C13.0762 10.3519 13.0762 10.8459 12.7715 11.1505L12.2931 11.629C10.6459 13.2761 8.03822 13.4614 6.17467 12.0638L5.23194 11.3567C3.87173 10.3366 2.66343 9.12827 1.64327 7.76806L0.936223 6.82533C-0.461438 4.96178 -0.276117 2.3541 1.37104 0.70694Z" ></path>
                                </svg>