<svg viewBox="0 0 18 18" fill="currentColor" xmlns="http://www.w3.org/2000/svg">
                                            <path fill-rule="evenodd" clip-rule="evenodd" d="M3.24788 2.03712C1.73186 3.61331 1.57693 6.06186 2.89428 7.81831L4.07584 9.39373C5.32663 11.0615 6.80812 12.5429 8.47584 13.7937L10.0513 14.9753C11.8077 16.2926 14.2563 16.1377 15.8324 14.6217L13.2473 12.0365L12.2261 13.0577C11.7595 13.5243 11.0466 13.64 10.4563 13.3449C7.88947 12.0614 5.80813 9.9801 4.52471 7.41325C4.22958 6.82299 4.34526 6.1101 4.81191 5.64345L5.83306 4.6223L3.24788 2.03712ZM1.89539 0.559966C2.64201 -0.186654 3.85252 -0.186657 4.59914 0.559965L7.24727 3.20809C8.02832 3.98914 8.02832 5.25547 7.24727 6.03652L6.46774 6.81605C7.51362 8.76109 9.10848 10.356 11.0535 11.4018L11.8331 10.6223C12.6141 9.84126 13.8804 9.84125 14.6615 10.6223L17.3096 13.2704C18.0562 14.017 18.0562 15.2276 17.3096 15.9742C15.0325 18.2513 11.4275 18.5075 8.85126 16.5753L7.27584 15.3937C5.4565 14.0292 3.84034 12.4131 2.47584 10.5937L1.29428 9.01831C-0.637914 6.44206 -0.381716 2.83708 1.89539 0.559966Z"  ></path>
                                        </svg>