<svg viewBox="0 0 14.5107 15" fill="currentColor" >
	 	<path d="M6.62 13.14C7.2 13.14 7.78 13.06 8.33 12.91C8.99 14.03 9.86 15 11.52 15C14.25 15 14.56 12.48 14.5 11.87L13.52 11.87C13.47 12.33 13.17 12.9 12.42 12.9C11.73 12.9 11.23 12.43 10.76 11.71C12.24 10.56 13.26 8.78 13.26 6.59C13.26 2.65 10.02 0 6.62 0C3.27 0 0 2.67 0 6.59C0 10.47 3.27 13.14 6.62 13.14ZM5.39 9.63C6.58 9.63 7.19 10.67 7.71 11.69C7.38 11.79 7.02 11.83 6.62 11.83C4.1 11.83 3.02 10.06 3.02 6.59C3.02 3.09 4.1 1.3 6.62 1.3C9.17 1.3 10.26 3.09 10.26 6.59C10.26 7.98 10.08 9.11 9.69 9.95C9.04 8.97 8.23 8.2 6.64 8.2C5.61 8.2 4.82 8.54 4.33 8.96L4.73 9.77C4.94 9.67 5.16 9.63 5.39 9.63Z" fill-rule="evenodd"/>
</svg>
