<svg viewBox="0 0 14 16" fill="currentColor" xmlns="http://www.w3.org/2000/svg">
                        <path fill-rule="evenodd" clip-rule="evenodd" d="M10.0513 11.8454C10.4521 11.4831 10.9763 11.2519 11.5621 11.2519C12.8031 11.2519 13.8128 12.2616 13.8128 13.5026C13.8128 14.7436 12.8031 15.7534 11.5621 15.7534C10.3211 15.7534 9.31132 14.7436 9.31132 13.5026C9.31132 13.333 9.33444 13.1634 9.37298 13.0016L3.88485 9.79503C3.46862 10.1804 2.92135 10.4194 2.31241 10.4194C1.03288 10.4194 0 9.38651 0 8.10697C0 6.82744 1.03288 5.79456 2.31241 5.79456C2.92135 5.79456 3.46862 6.03351 3.88485 6.41891L9.31903 3.2509C9.28049 3.07362 9.24965 2.89633 9.24965 2.71134C9.24965 1.4318 10.2825 0.398926 11.5621 0.398926C12.8416 0.398926 13.8745 1.4318 13.8745 2.71134C13.8745 3.99088 12.8416 5.02375 11.5621 5.02375C10.9531 5.02375 10.4059 4.7848 9.98963 4.3994L4.55545 7.56741C4.59399 7.74469 4.62483 7.92198 4.62483 8.10697C4.62483 8.29196 4.59399 8.46925 4.55545 8.64653L10.0513 11.8454ZM12.3327 2.71134C12.3327 2.2874 11.9858 1.94054 11.5619 1.94054C11.1379 1.94054 10.7911 2.2874 10.7911 2.71134C10.7911 3.13529 11.1379 3.48215 11.5619 3.48215C11.9858 3.48215 12.3327 3.13529 12.3327 2.71134ZM2.31175 8.87779C1.88781 8.87779 1.54095 8.53093 1.54095 8.10699C1.54095 7.68304 1.88781 7.33618 2.31175 7.33618C2.7357 7.33618 3.08256 7.68304 3.08256 8.10699C3.08256 8.53093 2.7357 8.87779 2.31175 8.87779ZM10.7911 13.518C10.7911 13.9419 11.1379 14.2888 11.5619 14.2888C11.9858 14.2888 12.3327 13.9419 12.3327 13.518C12.3327 13.0941 11.9858 12.7472 11.5619 12.7472C11.1379 12.7472 10.7911 13.0941 10.7911 13.518Z"></path>
                    </svg>