<svg viewBox="0 0 32 32" fill="currentColor" xmlns="http://www.w3.org/2000/svg">
<path d="M21.7332 24.1902C21.6484 24.2964 21.5417 24.3818 21.4208 24.4404C21.2999 24.499 21.1679 24.5292 21.0343 24.5289C20.9181 24.5296 20.8029 24.5063 20.6957 24.4602C20.5884 24.4142 20.4913 24.3464 20.41 24.2609L16.8514 20.5958C16.685 20.4245 16.5916 20.1922 16.5916 19.95C16.5916 19.7079 16.685 19.4756 16.8514 19.3043C16.9337 19.2192 17.0316 19.1518 17.1393 19.1057C17.2471 19.0597 17.3626 19.036 17.4792 19.036C17.5959 19.036 17.7114 19.0597 17.8192 19.1057C17.9269 19.1518 18.0248 19.2192 18.1071 19.3043L20.1458 21.4146V8.38455C20.1458 8.14219 20.2394 7.90975 20.4061 7.73837C20.5727 7.567 20.7987 7.47072 21.0343 7.47072C21.2699 7.47072 21.4959 7.567 21.6625 7.73837C21.8292 7.90975 21.9228 8.14219 21.9228 8.38455V21.4024L23.9627 19.3091C24.045 19.2243 24.1428 19.157 24.2504 19.111C24.358 19.0651 24.4734 19.0415 24.59 19.0415C24.7065 19.0415 24.8219 19.0651 24.9295 19.111C25.0371 19.157 25.1349 19.2243 25.2172 19.3091C25.3836 19.4805 25.4771 19.7127 25.4771 19.9549C25.4771 20.1971 25.3836 20.4293 25.2172 20.6007L21.732 24.1902H21.7332ZM11.6639 7.80945C11.5791 7.7033 11.4723 7.61786 11.3515 7.55928C11.2306 7.50071 11.0986 7.47046 10.965 7.47072C10.8488 7.47002 10.7336 7.4934 10.6263 7.53945C10.5191 7.5855 10.4219 7.65329 10.3407 7.73878L6.78327 11.4039C6.61689 11.5752 6.52344 11.8075 6.52344 12.0496C6.52344 12.2918 6.61689 12.5241 6.78327 12.6954C6.8656 12.7804 6.96345 12.8479 7.07119 12.8939C7.17893 12.94 7.29445 12.9637 7.41112 12.9637C7.52779 12.9637 7.64332 12.94 7.75106 12.8939C7.8588 12.8479 7.95665 12.7804 8.03898 12.6954L10.0765 10.5863V23.6151C10.0765 23.8575 10.1701 24.0899 10.3368 24.2613C10.5034 24.4327 10.7294 24.5289 10.965 24.5289C11.2006 24.5289 11.4266 24.4327 11.5932 24.2613C11.7599 24.0899 11.8535 23.8575 11.8535 23.6151V10.5972L13.8934 12.6905C13.9757 12.7754 14.0735 12.8427 14.1811 12.8886C14.2887 12.9345 14.4041 12.9582 14.5206 12.9582C14.6372 12.9582 14.7526 12.9345 14.8602 12.8886C14.9678 12.8427 15.0656 12.7754 15.1479 12.6905C15.3143 12.5192 15.4077 12.2869 15.4077 12.0448C15.4077 11.8026 15.3143 11.5703 15.1479 11.399L11.6627 7.80823L11.6639 7.80945Z" />
</svg>
