<svg viewBox="0 0 14 11" fill="currentColor" >	 
	<path id="path" d="M0.21 5.11C1.64 4.36 3.24 3.74 4.73 3.11C7.3 2.08 9.88 1.07 12.49 0.13C12.99 -0.03 13.91 -0.19 14 0.53C13.95 1.54 13.75 2.54 13.61 3.54C13.26 5.75 12.85 7.95 12.46 10.15C12.32 10.88 11.35 11.26 10.73 10.79C9.25 9.84 7.75 8.89 6.28 7.92C5.8 7.45 6.25 6.79 6.68 6.46C7.9 5.31 9.2 4.34 10.36 3.13C10.67 2.42 9.75 3.02 9.44 3.21C7.77 4.3 6.13 5.47 4.36 6.43C3.46 6.9 2.41 6.5 1.5 6.23C0.69 5.92 -0.49 5.6 0.21 5.11Z" fill-rule="nonzero"/>
</svg>
