 <svg
        viewBox="0 0 15 16"
        fill="currentColor"
      >
        <path
          fillRule="evenodd"
          clipRule="evenodd"
          d="M5.83333 11.6667C5.3731 11.6667 5 11.2937 5 10.8334L5 8.33341C5 7.87318 5.3731 7.50008 5.83333 7.50008C6.29357 7.50008 6.66667 7.87318 6.66667 8.33341L6.66667 10.8334C6.66667 11.2937 6.29357 11.6667 5.83333 11.6667Z"
        
        />
        <path
          fillRule="evenodd"
          clipRule="evenodd"
          d="M9.16732 11.6667C8.70708 11.6667 8.33398 11.2937 8.33398 10.8334L8.33398 8.33341C8.33398 7.87318 8.70708 7.50008 9.16732 7.50008C9.62755 7.50008 10.0007 7.87318 10.0007 8.33341L10.0007 10.8334C10.0007 11.2937 9.62756 11.6667 9.16732 11.6667Z"
     
        />
        <path
          fillRule="evenodd"
          clipRule="evenodd"
          d="M0.8552 5.01385C0.657717 5.00037 0.399686 4.99992 0 4.99992V3.33325C0.00891358 3.33325 0.0177978 3.33325 0.0266526 3.33325C0.0445462 3.33325 0.0623196 3.33325 0.0799725 3.33325H14.92C14.9377 3.33325 14.9555 3.33325 14.9733 3.33325L15 3.33325V4.99992C14.6003 4.99992 14.3423 5.00037 14.1448 5.01385C13.9548 5.02681 13.8824 5.04899 13.8478 5.06335C13.6436 5.14793 13.4813 5.31016 13.3968 5.51435C13.3824 5.54903 13.3602 5.62139 13.3473 5.81139C13.3338 6.00887 13.3333 6.2669 13.3333 6.66659L13.3333 11.7214C13.3334 12.4602 13.3334 13.0967 13.2649 13.6064C13.1914 14.1527 13.0258 14.6763 12.6011 15.101C12.1764 15.5257 11.6528 15.6914 11.1065 15.7648C10.5968 15.8333 9.96027 15.8333 9.22153 15.8333H5.77847C5.03973 15.8333 4.40322 15.8333 3.89351 15.7648C3.34724 15.6914 2.82362 15.5257 2.3989 15.101C1.97418 14.6763 1.80856 14.1527 1.73512 13.6064C1.66659 13.0967 1.66662 12.4602 1.66666 11.7214L1.66667 6.66659C1.66667 6.2669 1.66622 6.00887 1.65274 5.81139C1.63978 5.62139 1.6176 5.54903 1.60323 5.51435C1.51865 5.31016 1.35643 5.14793 1.15224 5.06335C1.11756 5.04899 1.0452 5.02681 0.8552 5.01385ZM11.8107 4.99992H3.18933C3.26749 5.23126 3.29962 5.46462 3.31554 5.69793C3.33335 5.95898 3.33334 6.27439 3.33333 6.63993L3.33333 11.6666C3.33333 12.4758 3.3351 12.9989 3.38692 13.3843C3.43552 13.7458 3.51397 13.8591 3.57741 13.9225C3.64085 13.9859 3.75414 14.0644 4.11559 14.113C4.50101 14.1648 5.0241 14.1666 5.83333 14.1666H9.16667C9.9759 14.1666 10.499 14.1648 10.8844 14.113C11.2459 14.0644 11.3592 13.9859 11.4226 13.9225C11.486 13.8591 11.5645 13.7458 11.6131 13.3843C11.6649 12.9989 11.6667 12.4758 11.6667 11.6666V6.63993C11.6667 6.27439 11.6666 5.95898 11.6845 5.69793C11.7004 5.46462 11.7325 5.23126 11.8107 4.99992Z"
         
        />
        <path
          fillRule="evenodd"
          clipRule="evenodd"
          d="M8.67175 0.101025C8.31844 0.0332505 7.90785 0 7.50015 0C7.09245 4.96705e-08 6.68185 0.0332505 6.32855 0.101025C6.15192 0.134907 5.979 0.179406 5.82234 0.238021C5.68005 0.291261 5.48597 0.37965 5.32178 0.532849C4.98526 0.84682 4.96699 1.37414 5.28096 1.71065C5.57723 2.0282 6.06348 2.06237 6.40011 1.8014C6.40204 1.80065 6.40412 1.79985 6.40639 1.799C6.45085 1.78237 6.52809 1.7598 6.64254 1.73785C6.87139 1.69395 7.17407 1.66667 7.50015 1.66667C7.82623 1.66667 8.12891 1.69395 8.35775 1.73785C8.4722 1.7598 8.54944 1.78237 8.59391 1.799C8.59617 1.79985 8.59826 1.80065 8.60018 1.8014C8.93681 2.06237 9.42306 2.0282 9.71933 1.71065C10.0333 1.37414 10.015 0.846819 9.67852 0.532848C9.51432 0.37965 9.32025 0.29126 9.17795 0.23802C9.02129 0.179405 8.84837 0.134907 8.67175 0.101025Z"
        
        />
      </svg>