<svg viewBox="0 0 15.3042 11" fill="currentColor" >	 
	<path id="Subtract" d="M14.9844 1.71765C14.8086 1.0415 14.29 0.509155 13.6313 0.328369C12.438 0 7.65234 0 7.65234 0C7.65234 0 2.86621 0 1.67285 0.328369C1.01416 0.509155 0.495605 1.0415 0.319824 1.71765C0 2.94312 0 5.5 0 5.5C0 5.5 0 8.05676 0.319824 9.28235C0.495605 9.9585 1.01416 10.4908 1.67285 10.6718C2.86621 11 7.65234 11 7.65234 11C7.65234 11 12.438 11 13.6313 10.6718C14.29 10.4908 14.8086 9.9585 14.9844 9.28235C15.3042 8.05676 15.3042 5.5 15.3042 5.5C15.3042 5.5 15.3042 2.94312 14.9844 1.71765ZM6.21777 3.3479L6.21777 8.13062L10.0439 5.73938L6.21777 3.3479Z" clip-rule="evenodd" fill-rule="evenodd"/>
</svg>
